<svg xmlns="http://www.w3.org/2000/svg" viewBox="0 0 900 560" role="img" aria-labelledby="title desc">
  <title id="title">Calculator project preview</title>
  <desc id="desc">A calculator user interface preview with display and number buttons.</desc>
  <rect width="900" height="560" fill="#eef6f5"/>
  <rect x="246" y="48" width="408" height="464" rx="34" fill="#ffffff"/>
  <rect x="286" y="96" width="328" height="104" rx="18" fill="#111827"/>
  <rect x="468" y="132" width="108" height="18" rx="9" fill="#6b7888"/>
  <rect x="408" y="160" width="168" height="28" rx="14" fill="#ffffff"/>
  <g fill="#edf3f8">
    <rect x="286" y="238" width="70" height="58" rx="12"/>
    <rect x="372" y="238" width="70" height="58" rx="12"/>
    <rect x="458" y="238" width="70" height="58" rx="12"/>
    <rect x="544" y="238" width="70" height="58" rx="12"/>
    <rect x="286" y="314" width="70" height="58" rx="12"/>
    <rect x="372" y="314" width="70" height="58" rx="12"/>
    <rect x="458" y="314" width="70" height="58" rx="12"/>
    <rect x="544" y="314" width="70" height="58" rx="12"/>
    <rect x="286" y="390" width="156" height="58" rx="12"/>
    <rect x="458" y="390" width="70" height="58" rx="12"/>
  </g>
  <rect x="544" y="390" width="70" height="58" rx="12" fill="#0e8f8f"/>
  <rect x="544" y="238" width="70" height="58" rx="12" fill="#f4a340"/>
  <rect x="544" y="314" width="70" height="58" rx="12" fill="#0e8f8f" opacity="0.18"/>
</svg>
